# xmcd CD database file
#
# Track frame offsets:
#	150
#	11447
#	21900
#	32360
#	44925
#	54048
#	65586
#	76770
#	88706
#	99693
#	113190
#	124273
#	139248
#	151238
#	170839
#	186476
#	197872
#	227757
#
# Disc length: 3201 seconds
#
# Revision: 2
# Processed by: cddbd v1.5.1PL2 Copyright (c) Steve Scherf et al.
# Submitted via: CDex 1.51
#
DISCID=f60c7f12
DTITLE=Yardbirds - Stroll On With  Yardbirds CD1
DYEAR=2004
DGENRE=Rock
TTITLE0=For Your Love
TTITLE1=I Wish You Would
TTITLE2=A Certain Girl
TTITLE3=Good Morning Little School Girl
TTITLE4=I Ain't Got You
TTITLE5=Got To Hurry
TTITLE6=Heart Full Of Soul
TTITLE7=Steeled Blues
TTITLE8=Evil Hearted You
TTITLE9=Still I'm Sad
TTITLE10=Shapes Of Thing
TTITLE11=Mister You're Better Man Than
TTITLE12=I'm A Man
TTITLE13=New York City Blues
TTITLE14=Train Kept A Rollin'
TTITLE15=Sweet Music
TTITLE16=Someone To Love (Parts 1 and 2)
TTITLE17=Stroll On
EXTD=YEAR: 2004
EXTT0=
EXTT1=
EXTT2=
EXTT3=
EXTT4=
EXTT5=
EXTT6=
EXTT7=
EXTT8=
EXTT9=
EXTT10=
EXTT11=
EXTT12=
EXTT13=
EXTT14=
EXTT15=
EXTT16=
EXTT17=
PLAYORDER=
